# xmcd
#
# Track frame offsets:
#	150
#	13107
#	26157
#	44232
#	59210
#	70947
#	88760
#	101387
#	112225
#	121842
#	138137
#	149087
#	165325
#	176425
#	194442
#	209142
#
# Disc length: 2950 seconds
#
# Revision: 1
# Processed by: cddbd v1.4PL0 Copyright (c) Steve Scherf et al.
# Submitted via: audiograbber 1.80.04
#
DISCID=fb0b8410
DTITLE=Jim Lauderdale - Onward Through It All
DYEAR=1999
DGENRE=Country
TTITLE0=You Just Know
TTITLE1=I Already Loved You
TTITLE2=Calico
TTITLE3=Lost Sunset
TTITLE4=Trust (Guiding Star)
TTITLE5=Onward Through It All
TTITLE6=It's Just Like You
TTITLE7=Almost Next To Nothing
TTITLE8=Please Be San Antone
TTITLE9=Lonely Chill
TTITLE10=We Really Shouldn't Be Doing This
TTITLE11=What I Want You To Say
TTITLE12=The One That Didn't Get Away
TTITLE13=Understanding Everything
TTITLE14=As If We Would Never Love Again
TTITLE15=Still Not Out Of The Woods
EXTD=
EXTT0=
EXTT1=
EXTT2=
EXTT3=
EXTT4=
EXTT5=
EXTT6=
EXTT7=
EXTT8=
EXTT9=
EXTT10=
EXTT11=
EXTT12=
EXTT13=
EXTT14=
EXTT15=
PLAYORDER=
